# xmcd
#
# Track frame offsets:
#	150
#	18245
#	39258
#	50004
#	72449
#	94481
#	113868
#	128506
#	147370
#	162527
#	173707
#	182059
#	191114
#	202054
#	214780
#	234765
#	250588
#	259195
#	264777
#	273418
#	281596
#	293812
#	307161
#
# Disc length: 4304 seconds
#
# Revision: 2
# Processed by: cddbd v1.5.2PL0 Copyright (c) Steve Scherf et al.
# Submitted via: audiograbber 1.83.01
#
DISCID=5b10ce17
DTITLE=Александр Розенбаум - Песни любимые народом
DYEAR=2001
DGENRE=Chanson
TTITLE0=Фраер
TTITLE1=Та помнишь, Муся?
TTITLE2=Брайтон
TTITLE3=Месье Жан
TTITLE4=Что-то здесь не так
TTITLE5=Приморский парк победы
TTITLE6=Новогодняя рулетка Поп-Санта-Клауса
TTITLE7=Сватовство Семена
TTITLE8=Ша! Братва
TTITLE9=38 узлов
TTITLE10=Таксист
TTITLE11=Шолохвост
TTITLE12=Четвертиночка
TTITLE13=Скрипач ростовский Моня
TTITLE14=На улице Гороховой
TTITLE15=Ничего нет невозможного
TTITLE16=Марк Шнейдер был Макшнедер
TTITLE17=Ах, эти ночи!
TTITLE18=Встану рано поутру
TTITLE19=Супчик из цветной капусты
TTITLE20=Гулливер
TTITLE21=Нету времени
TTITLE22=Белая прица удачи
EXTD=
EXTT0=
EXTT1=
EXTT2=
EXTT3=
EXTT4=
EXTT5=
EXTT6=
EXTT7=
EXTT8=
EXTT9=
EXTT10=
EXTT11=
EXTT12=
EXTT13=
EXTT14=
EXTT15=
EXTT16=
EXTT17=
EXTT18=
EXTT19=
EXTT20=
EXTT21=
EXTT22=
PLAYORDER=
